<svg width="101" height="25" viewBox="0 0 101 25" fill="none" xmlns="http://www.w3.org/2000/svg">
<path d="M10.5091 5.07304C11.9957 4.14401 12.8989 2.51467 12.899 0.76163L15.2195 0.761744C15.2194 3.31487 13.904 5.68784 11.7388 7.04088L11.1255 7.42414L9.91578 5.44379L10.5091 5.07304Z" fill="#D91919"/>
<path d="M15.7228 6.87684L16.082 6.37158C17.247 4.73297 17.8729 2.77237 17.873 0.761869L20.1936 0.761984C20.1935 3.25432 19.4175 5.68481 17.9733 7.71613L17.6141 8.22139C16.589 9.66333 15.3207 10.9125 13.8683 11.9141L12.6565 9.93022C13.8422 9.09476 14.8797 8.06282 15.7228 6.87684Z" fill="#D91919"/>
<path d="M17.0738 12.7044C18.9534 11.147 20.4641 9.19218 21.4973 6.98071L21.55 6.86792C22.443 4.9563 22.9059 2.87206 22.906 0.762126L25.2266 0.76224C25.2264 3.21154 24.6891 5.63101 23.6524 7.85009L23.5997 7.96288C22.4213 10.4852 20.6982 12.7149 18.5544 14.4912L16.4884 16.2031L15.2661 14.2023L17.0738 12.7044Z" fill="#D91919"/>
<path d="M2.44768 22.0613L0.12715 22.0612C0.127466 15.7274 3.30451 9.82879 8.56363 6.34002L9.77428 8.32184C5.20516 11.3875 2.44795 16.5356 2.44768 22.0613Z" fill="black" fill-opacity="0.25"/>
<path d="M7.42174 22.0615L5.10122 22.0614C5.10145 17.4986 7.44931 13.2488 11.3052 10.828L12.515 12.8084C9.351 14.8065 7.42193 18.3048 7.42174 22.0615Z" fill="black" fill-opacity="0.25"/>
<path d="M14.3663 17.9955C13.1556 18.9988 12.4548 20.4894 12.4547 22.0618L10.1342 22.0617C10.1343 19.7983 11.143 17.6528 12.8858 16.2087L14.0187 15.2699L15.241 17.2708L14.3663 17.9955Z" fill="black" fill-opacity="0.25"/>
<path d="M48.5919 4.52971C48.4157 4.2067 48.1734 3.96078 47.8651 3.79193C47.5567 3.62309 47.197 3.53866 46.7859 3.53866C46.3308 3.53866 45.927 3.64144 45.5746 3.84699C45.2222 4.05254 44.9469 4.34618 44.7487 4.72792C44.5505 5.10966 44.4514 5.55012 44.4514 6.04932C44.4514 6.5632 44.5505 7.011 44.7487 7.39274C44.9543 7.77448 45.2369 8.06812 45.5966 8.27367C45.9564 8.47922 46.3748 8.582 46.852 8.582C47.4393 8.582 47.9201 8.42783 48.2945 8.11951C48.6689 7.80384 48.9149 7.36705 49.0323 6.80912H46.3895V5.63088H50.552V6.9743C50.4492 7.5102 50.2289 8.00572 49.8912 8.46087C49.5536 8.91602 49.1167 9.28307 48.5808 9.56203C48.0523 9.83365 47.4576 9.96947 46.7969 9.96947C46.0555 9.96947 45.3837 9.80429 44.7818 9.47394C44.1871 9.13625 43.7173 8.67009 43.3722 8.07546C43.0346 7.48083 42.8657 6.80545 42.8657 6.04932C42.8657 5.29319 43.0346 4.6178 43.3722 4.02318C43.7173 3.42121 44.1871 2.95505 44.7818 2.6247C45.3837 2.28701 46.0518 2.11816 46.7859 2.11816C47.6522 2.11816 48.4047 2.33105 49.0433 2.75684C49.682 3.17528 50.1225 3.76624 50.3648 4.52971H48.5919Z" fill="black"/>
<path d="M57.3636 6.72103C57.3636 6.94126 57.3489 7.13947 57.3196 7.31566H52.8598C52.8965 7.75612 53.0507 8.10116 53.3223 8.35075C53.5939 8.60035 53.9279 8.72515 54.3244 8.72515C54.897 8.72515 55.3044 8.47922 55.5467 7.98737H57.2095C57.0333 8.57466 56.6956 9.05917 56.1964 9.44091C55.6972 9.8153 55.0842 10.0025 54.3574 10.0025C53.7701 10.0025 53.2415 9.87403 52.7717 9.61709C52.3092 9.35281 51.9458 8.98209 51.6815 8.50492C51.4246 8.02774 51.2961 7.47716 51.2961 6.85317C51.2961 6.22184 51.4246 5.66758 51.6815 5.19041C51.9385 4.71324 52.2982 4.34618 52.7607 4.08925C53.2232 3.83231 53.7554 3.70384 54.3574 3.70384C54.9374 3.70384 55.4549 3.82864 55.9101 4.07823C56.3726 4.32783 56.7286 4.68387 56.9782 5.14636C57.2352 5.60151 57.3636 6.1264 57.3636 6.72103ZM55.7669 6.28056C55.7596 5.88414 55.6164 5.56848 55.3375 5.33356C55.0585 5.09131 54.7171 4.97018 54.3134 4.97018C53.9316 4.97018 53.6086 5.08763 53.3443 5.32255C53.0874 5.55012 52.9295 5.86946 52.8708 6.28056H55.7669Z" fill="black"/>
<path d="M61.8695 3.71485C62.5963 3.71485 63.1836 3.94609 63.6314 4.40858C64.0792 4.86373 64.3031 5.50241 64.3031 6.32461V9.9034H62.7615V6.53383C62.7615 6.04932 62.6404 5.67859 62.3981 5.42165C62.1558 5.15738 61.8255 5.02524 61.407 5.02524C60.9812 5.02524 60.6435 5.15738 60.3939 5.42165C60.1517 5.67859 60.0306 6.04932 60.0306 6.53383V9.9034H58.4889V3.80294H60.0306V4.56275C60.2361 4.29847 60.4967 4.09292 60.8124 3.94609C61.1354 3.79193 61.4878 3.71485 61.8695 3.71485Z" fill="black"/>
<path d="M71.4403 6.72103C71.4403 6.94126 71.4256 7.13947 71.3962 7.31566H66.9364C66.9731 7.75612 67.1273 8.10116 67.3989 8.35075C67.6706 8.60035 68.0046 8.72515 68.401 8.72515C68.9736 8.72515 69.3811 8.47922 69.6233 7.98737H71.2861C71.1099 8.57466 70.7722 9.05917 70.273 9.44091C69.7738 9.8153 69.1608 10.0025 68.434 10.0025C67.8467 10.0025 67.3182 9.87403 66.8483 9.61709C66.3858 9.35281 66.0224 8.98209 65.7582 8.50492C65.5012 8.02774 65.3728 7.47716 65.3728 6.85317C65.3728 6.22184 65.5012 5.66758 65.7582 5.19041C66.0151 4.71324 66.3748 4.34618 66.8373 4.08925C67.2998 3.83231 67.8321 3.70384 68.434 3.70384C69.014 3.70384 69.5316 3.82864 69.9867 4.07823C70.4492 4.32783 70.8053 4.68387 71.0549 5.14636C71.3118 5.60151 71.4403 6.1264 71.4403 6.72103ZM69.8436 6.28056C69.8362 5.88414 69.6931 5.56848 69.4141 5.33356C69.1351 5.09131 68.7938 4.97018 68.39 4.97018C68.0082 4.97018 67.6852 5.08763 67.421 5.32255C67.164 5.55012 67.0062 5.86946 66.9474 6.28056H69.8436Z" fill="black"/>
<path d="M74.1072 4.74994C74.3054 4.42694 74.5624 4.17367 74.878 3.99014C75.201 3.80661 75.5681 3.71485 75.9792 3.71485V5.33356H75.5718C75.0872 5.33356 74.7202 5.44735 74.4706 5.67492C74.2283 5.9025 74.1072 6.29892 74.1072 6.86418V9.9034H72.5655V3.80294H74.1072V4.74994Z" fill="black"/>
<path d="M76.6212 6.83115C76.6212 6.21449 76.7423 5.66758 76.9846 5.19041C77.2341 4.71324 77.5682 4.34618 77.9866 4.08925C78.4124 3.83231 78.8859 3.70384 79.4071 3.70384C79.8623 3.70384 80.2587 3.7956 80.5964 3.97913C80.9415 4.16266 81.2168 4.3939 81.4223 4.67286V3.80294H82.975V9.9034H81.4223V9.01145C81.2241 9.29776 80.9488 9.53634 80.5964 9.72721C80.2514 9.91074 79.8513 10.0025 79.3961 10.0025C78.8823 10.0025 78.4124 9.87036 77.9866 9.60608C77.5682 9.3418 77.2341 8.97108 76.9846 8.4939C76.7423 8.00939 76.6212 7.45514 76.6212 6.83115ZM81.4223 6.85317C81.4223 6.47877 81.3489 6.15944 81.2021 5.89516C81.0553 5.62353 80.857 5.41798 80.6074 5.2785C80.3578 5.13168 80.0899 5.05827 79.8036 5.05827C79.5173 5.05827 79.253 5.12801 79.0107 5.26749C78.7685 5.40697 78.5703 5.61252 78.4161 5.88414C78.2693 6.14842 78.1958 6.46409 78.1958 6.83115C78.1958 7.1982 78.2693 7.52121 78.4161 7.80017C78.5703 8.07179 78.7685 8.28101 79.0107 8.42783C79.2603 8.57466 79.5246 8.64807 79.8036 8.64807C80.0899 8.64807 80.3578 8.57833 80.6074 8.43885C80.857 8.29202 81.0553 8.08647 81.2021 7.82219C81.3489 7.55057 81.4223 7.22757 81.4223 6.85317Z" fill="black"/>
<path d="M84.0843 6.85317C84.0843 6.22184 84.2127 5.67125 84.4697 5.20142C84.7266 4.72425 85.0827 4.3572 85.5378 4.10026C85.993 3.83598 86.5142 3.70384 87.1015 3.70384C87.8576 3.70384 88.4816 3.89471 88.9735 4.27644C89.4727 4.65084 89.8067 5.1794 89.9756 5.86212H88.3128C88.2247 5.59784 88.0742 5.39229 87.8613 5.24547C87.6558 5.09131 87.3988 5.01422 87.0905 5.01422C86.65 5.01422 86.3013 5.17573 86.0444 5.49874C85.7874 5.8144 85.6589 6.26588 85.6589 6.85317C85.6589 7.43312 85.7874 7.88459 86.0444 8.2076C86.3013 8.52327 86.65 8.6811 87.0905 8.6811C87.7145 8.6811 88.1219 8.40214 88.3128 7.84422H89.9756C89.8067 8.50492 89.4727 9.0298 88.9735 9.41888C88.4743 9.80796 87.8503 10.0025 87.1015 10.0025C86.5142 10.0025 85.993 9.87403 85.5378 9.61709C85.0827 9.35281 84.7266 8.98576 84.4697 8.51593C84.2127 8.03876 84.0843 7.4845 84.0843 6.85317Z" fill="black"/>
<path d="M91.8868 3.07617C91.6078 3.07617 91.3766 2.99175 91.1931 2.82291C91.0169 2.64672 90.9288 2.43016 90.9288 2.17322C90.9288 1.91628 91.0169 1.70339 91.1931 1.53454C91.3766 1.35836 91.6078 1.27026 91.8868 1.27026C92.1584 1.27026 92.3823 1.35836 92.5585 1.53454C92.7347 1.70339 92.8228 1.91628 92.8228 2.17322C92.8228 2.43016 92.7347 2.64672 92.5585 2.82291C92.3823 2.99175 92.1584 3.07617 91.8868 3.07617ZM92.6466 10.9055C92.6466 11.5808 92.4778 12.0653 92.1401 12.359C91.8097 12.66 91.3326 12.8105 90.7085 12.8105H90.0258V11.5001H90.4663C90.7012 11.5001 90.8664 11.4524 90.9618 11.3569C91.0573 11.2688 91.105 11.122 91.105 10.9165V3.80294H92.6466V10.9055Z" fill="black"/>
<path d="M93.7734 6.83115C93.7734 6.21449 93.8945 5.66758 94.1367 5.19041C94.3864 4.71324 94.7204 4.34618 95.1388 4.08925C95.5646 3.83231 96.0381 3.70384 96.5594 3.70384C97.0145 3.70384 97.4109 3.7956 97.7486 3.97913C98.0937 4.16266 98.369 4.3939 98.5745 4.67286V3.80294H100.127V9.9034H98.5745V9.01145C98.3763 9.29776 98.101 9.53634 97.7486 9.72721C97.4036 9.91074 97.0035 10.0025 96.5483 10.0025C96.0345 10.0025 95.5646 9.87036 95.1388 9.60608C94.7204 9.3418 94.3864 8.97108 94.1367 8.4939C93.8945 8.00939 93.7734 7.45514 93.7734 6.83115ZM98.5745 6.85317C98.5745 6.47877 98.5011 6.15944 98.3543 5.89516C98.2075 5.62353 98.0092 5.41798 97.7596 5.2785C97.51 5.13168 97.2421 5.05827 96.9558 5.05827C96.6695 5.05827 96.4052 5.12801 96.1629 5.26749C95.9207 5.40697 95.7225 5.61252 95.5683 5.88414C95.4215 6.14842 95.3481 6.46409 95.3481 6.83115C95.3481 7.1982 95.4215 7.52121 95.5683 7.80017C95.7225 8.07179 95.9207 8.28101 96.1629 8.42783C96.4125 8.57466 96.6768 8.64807 96.9558 8.64807C97.2421 8.64807 97.51 8.57833 97.7596 8.43885C98.0092 8.29202 98.2075 8.08647 98.3543 7.82219C98.5011 7.55057 98.5745 7.22757 98.5745 6.85317Z" fill="black"/>
<path d="M36.4646 14.3319V22.0621H34.5815V14.3319H36.4646Z" fill="black"/>
<path d="M41.5732 15.8515C42.2926 15.8515 42.8652 16.0864 43.291 16.5563C43.7242 17.0188 43.9407 17.6574 43.9407 18.4723V22.0621H42.0687V18.7256C42.0687 18.3145 41.9623 17.9951 41.7494 17.7675C41.5365 17.54 41.2502 17.4262 40.8905 17.4262C40.5307 17.4262 40.2444 17.54 40.0315 17.7675C39.8186 17.9951 39.7122 18.3145 39.7122 18.7256V22.0621H37.8292V15.9176H39.7122V16.7325C39.9031 16.4608 40.16 16.2479 40.483 16.0938C40.806 15.9323 41.1694 15.8515 41.5732 15.8515Z" fill="black"/>
<path d="M48.9933 15.8515C49.7127 15.8515 50.2853 16.0864 50.7111 16.5563C51.1442 17.0188 51.3608 17.6574 51.3608 18.4723V22.0621H49.4888V18.7256C49.4888 18.3145 49.3824 17.9951 49.1695 17.7675C48.9566 17.54 48.6703 17.4262 48.3105 17.4262C47.9508 17.4262 47.6645 17.54 47.4516 17.7675C47.2387 17.9951 47.1323 18.3145 47.1323 18.7256V22.0621H45.2492V15.9176H47.1323V16.7325C47.3231 16.4608 47.5801 16.2479 47.9031 16.0938C48.2261 15.9323 48.5895 15.8515 48.9933 15.8515Z" fill="black"/>
<path d="M55.4663 22.1502C54.8643 22.1502 54.3211 22.0217 53.8366 21.7648C53.3594 21.5078 52.9813 21.1408 52.7024 20.6636C52.4307 20.1864 52.2949 19.6285 52.2949 18.9898C52.2949 18.3585 52.4344 17.8043 52.7134 17.3271C52.9923 16.8426 53.3741 16.4718 53.8586 16.2149C54.3431 15.958 54.8864 15.8295 55.4884 15.8295C56.0903 15.8295 56.6336 15.958 57.1181 16.2149C57.6026 16.4718 57.9844 16.8426 58.2633 17.3271C58.5423 17.8043 58.6818 18.3585 58.6818 18.9898C58.6818 19.6212 58.5386 20.1791 58.2523 20.6636C57.9734 21.1408 57.5879 21.5078 57.0961 21.7648C56.6116 22.0217 56.0683 22.1502 55.4663 22.1502ZM55.4663 20.5205C55.826 20.5205 56.1307 20.3883 56.3803 20.124C56.6373 19.8598 56.7657 19.4817 56.7657 18.9898C56.7657 18.498 56.6409 18.1199 56.3913 17.8556C56.1491 17.5914 55.8481 17.4592 55.4884 17.4592C55.1213 17.4592 54.8166 17.5914 54.5744 17.8556C54.3321 18.1126 54.211 18.4906 54.211 18.9898C54.211 19.4817 54.3284 19.8598 54.5634 20.124C54.8056 20.3883 55.1066 20.5205 55.4663 20.5205Z" fill="black"/>
<path d="M68.5012 15.9176L66.8384 22.0621H64.7572L63.7882 18.0759L62.7861 22.0621H60.7159L59.0421 15.9176H60.9251L61.795 20.3112L62.8301 15.9176H64.8233L65.8694 20.2892L66.7283 15.9176H68.5012Z" fill="black"/>
<path d="M68.8449 18.9788C68.8449 18.3475 68.9624 17.7932 69.1973 17.3161C69.4396 16.8389 69.7662 16.4718 70.1773 16.2149C70.5885 15.958 71.0473 15.8295 71.5538 15.8295C71.987 15.8295 72.365 15.9176 72.688 16.0938C73.0184 16.27 73.2717 16.5012 73.4479 16.7875V15.9176H75.3309V22.0621H73.4479V21.1922C73.2643 21.4785 73.0074 21.7097 72.677 21.8859C72.354 22.0621 71.9759 22.1502 71.5428 22.1502C71.0436 22.1502 70.5885 22.0217 70.1773 21.7648C69.7662 21.5005 69.4396 21.1298 69.1973 20.6526C68.9624 20.1681 68.8449 19.6102 68.8449 18.9788ZM73.4479 18.9898C73.4479 18.52 73.3157 18.1493 73.0514 17.8777C72.7945 17.606 72.4788 17.4702 72.1044 17.4702C71.73 17.4702 71.4107 17.606 71.1464 17.8777C70.8894 18.1419 70.761 18.509 70.761 18.9788C70.761 19.4487 70.8894 19.8231 71.1464 20.102C71.4107 20.3736 71.73 20.5094 72.1044 20.5094C72.4788 20.5094 72.7945 20.3736 73.0514 20.102C73.3157 19.8304 73.4479 19.4597 73.4479 18.9898Z" fill="black"/>
<path d="M76.3188 18.9898C76.3188 18.3512 76.4472 17.7932 76.7042 17.3161C76.9685 16.8389 77.3319 16.4718 77.7943 16.2149C78.2642 15.958 78.8001 15.8295 79.4021 15.8295C80.1729 15.8295 80.8153 16.0314 81.3291 16.4351C81.8504 16.8389 82.1917 17.4078 82.3532 18.1419H80.3491C80.1802 17.6721 79.8536 17.4372 79.369 17.4372C79.024 17.4372 78.7487 17.573 78.5431 17.8446C78.3376 18.1089 78.2348 18.4906 78.2348 18.9898C78.2348 19.489 78.3376 19.8744 78.5431 20.1461C78.7487 20.4103 79.024 20.5425 79.369 20.5425C79.8536 20.5425 80.1802 20.3076 80.3491 19.8377H82.3532C82.1917 20.5572 81.8504 21.1224 81.3291 21.5335C80.8079 21.9446 80.1656 22.1502 79.4021 22.1502C78.8001 22.1502 78.2642 22.0217 77.7943 21.7648C77.3319 21.5078 76.9685 21.1408 76.7042 20.6636C76.4472 20.1864 76.3188 19.6285 76.3188 18.9898Z" fill="black"/>
<path d="M84.2965 15.2789C83.9661 15.2789 83.6945 15.1835 83.4816 14.9926C83.2761 14.7944 83.1733 14.5521 83.1733 14.2658C83.1733 13.9722 83.2761 13.7299 83.4816 13.5391C83.6945 13.3409 83.9661 13.2418 84.2965 13.2418C84.6195 13.2418 84.8838 13.3409 85.0893 13.5391C85.3022 13.7299 85.4087 13.9722 85.4087 14.2658C85.4087 14.5521 85.3022 14.7944 85.0893 14.9926C84.8838 15.1835 84.6195 15.2789 84.2965 15.2789ZM85.2435 22.8549C85.2435 23.6111 85.0526 24.1543 84.6709 24.4846C84.2891 24.8223 83.7569 24.9912 83.0742 24.9912H82.3364V23.3945H82.7879C82.9934 23.3945 83.1402 23.3541 83.2283 23.2734C83.3164 23.1926 83.3605 23.0605 83.3605 22.877V15.9176H85.2435V22.8549Z" fill="black"/>
<path d="M86.2229 18.9788C86.2229 18.3475 86.3404 17.7932 86.5753 17.3161C86.8176 16.8389 87.1443 16.4718 87.5554 16.2149C87.9665 15.958 88.4253 15.8295 88.9319 15.8295C89.365 15.8295 89.7431 15.9176 90.0661 16.0938C90.3964 16.27 90.6497 16.5012 90.8259 16.7875V15.9176H92.7089V22.0621H90.8259V21.1922C90.6424 21.4785 90.3854 21.7097 90.0551 21.8859C89.7321 22.0621 89.354 22.1502 88.9208 22.1502C88.4216 22.1502 87.9665 22.0217 87.5554 21.7648C87.1443 21.5005 86.8176 21.1298 86.5753 20.6526C86.3404 20.1681 86.2229 19.6102 86.2229 18.9788ZM90.8259 18.9898C90.8259 18.52 90.6938 18.1493 90.4295 17.8777C90.1725 17.606 89.8569 17.4702 89.4825 17.4702C89.108 17.4702 88.7887 17.606 88.5244 17.8777C88.2675 18.1419 88.139 18.509 88.139 18.9788C88.139 19.4487 88.2675 19.8231 88.5244 20.102C88.7887 20.3736 89.108 20.5094 89.4825 20.5094C89.8569 20.5094 90.1725 20.3736 90.4295 20.102C90.6938 19.8304 90.8259 19.4597 90.8259 18.9898Z" fill="black"/>
</svg>
