<svg width="132" height="25" viewBox="0 0 132 25" fill="none" xmlns="http://www.w3.org/2000/svg">
<g clip-path="url(#clip0_3784_2290)">
<path d="M2.57642 9.44335C2.78737 9.2324 3.12942 9.2324 3.3404 9.44335L14.8002 20.9032C15.0112 21.1142 15.0112 21.4562 14.8002 21.6672L12.5083 23.9592C12.2973 24.1701 11.9552 24.1701 11.7443 23.9592L0.284448 12.4993C0.0734784 12.2884 0.0734781 11.9463 0.284448 11.7353L2.57642 9.44335Z" fill="#00B3DB"/>
<path d="M7.16041 4.85985C7.37136 4.64888 7.71341 4.64888 7.92439 4.85985L19.3842 16.3197C19.5952 16.5307 19.5952 16.8727 19.3842 17.0837L17.0923 19.3756C16.8813 19.5866 16.5392 19.5866 16.3283 19.3756L4.86844 7.9158C4.65746 7.70483 4.65746 7.36278 4.86844 7.1518L7.16041 4.85985Z" fill="#003642"/>
<path d="M7.16041 4.85985C7.37136 4.64888 7.71341 4.64888 7.92439 4.85985L19.3842 16.3197C19.5952 16.5307 19.5952 16.8727 19.3842 17.0837L17.0923 19.3756C16.8813 19.5866 16.5392 19.5866 16.3283 19.3756L4.86844 7.9158C4.65746 7.70483 4.65746 7.36278 4.86844 7.1518L7.16041 4.85985Z" fill="#00B3DB" fill-opacity="0.5"/>
<path d="M11.7444 0.275605C11.9554 0.0646357 12.2974 0.064636 12.5084 0.275605L23.9682 11.7354C24.1792 11.9464 24.1792 12.2885 23.9682 12.4994L21.6762 14.7914C21.4653 15.0024 21.1232 15.0024 20.9122 14.7914L9.4524 3.33155C9.24145 3.12058 9.24145 2.77853 9.4524 2.56757L11.7444 0.275605Z" fill="#003642"/>
<path d="M11.7444 0.275605C11.9554 0.0646357 12.2974 0.064636 12.5084 0.275605L23.9682 11.7354C24.1792 11.9464 24.1792 12.2885 23.9682 12.4994L21.6762 14.7914C21.4653 15.0024 21.1232 15.0024 20.9122 14.7914L9.4524 3.33155C9.24145 3.12058 9.24145 2.77853 9.4524 2.56757L11.7444 0.275605Z" fill="#00B3DB" fill-opacity="0.1"/>
<path d="M30.1262 17.8764C30.1262 17.9454 30.1822 18.0014 30.2512 18.0014H33.3392C33.4082 18.0014 33.4642 17.9454 33.4642 17.8764V12.2291C33.4642 12.0885 33.6607 12.055 33.7072 12.1878L35.7172 17.9178C35.7347 17.9679 35.782 18.0014 35.835 18.0014H38.451C38.504 18.0014 38.5512 17.9679 38.5687 17.9178L40.5617 12.2375C40.6082 12.1047 40.8045 12.1382 40.8045 12.2788V17.8764C40.8045 17.9454 40.8605 18.0014 40.9295 18.0014H44.0175C44.0867 18.0014 44.1425 17.9454 44.1425 17.8764V6.4251C44.1425 6.35608 44.0867 6.3001 44.0175 6.3001H40.209C40.1572 6.3001 40.111 6.3318 40.0925 6.37993L37.2922 13.6045C37.2512 13.7105 37.1015 13.7111 37.0595 13.6054L34.194 6.37903C34.175 6.33138 34.129 6.3001 34.0777 6.3001H30.2512C30.1822 6.3001 30.1262 6.35608 30.1262 6.4251V17.8764Z" fill="#003642"/>
<path d="M49.196 14.2561C49.2055 14.2741 49.2105 14.2942 49.2105 14.3146V17.8764C49.2105 17.9454 49.2662 18.0014 49.3355 18.0014H52.4405C52.5095 18.0014 52.5655 17.9454 52.5655 17.8764V14.3146C52.5655 14.2942 52.5705 14.2741 52.58 14.2561L56.692 6.48355C56.736 6.4003 56.6757 6.3001 56.5815 6.3001H53.1047C53.0562 6.3001 53.012 6.32818 52.9915 6.37213L51.0267 10.5726C50.9817 10.6687 50.8452 10.6687 50.8002 10.5726L48.8352 6.37213C48.8147 6.32818 48.7707 6.3001 48.7222 6.3001H45.1942C45.1002 6.3001 45.0397 6.4003 45.0837 6.48355L49.196 14.2561Z" fill="#003642"/>
<path d="M61.1066 11.4615C61.0376 11.4615 60.9816 11.4055 60.9816 11.3365V9.04703C60.9816 8.97798 61.0376 8.92203 61.1066 8.92203H62.3101C63.3148 8.92203 63.7236 9.41995 63.7236 10.2C63.7236 10.9635 63.3148 11.4615 62.3101 11.4615H61.1066ZM67.1296 10.2C67.1296 7.94275 65.6138 6.29958 62.6336 6.29958H57.7686C57.6996 6.29958 57.6436 6.35553 57.6436 6.42458V17.8759C57.6436 17.9449 57.6996 18.0009 57.7686 18.0009H60.8566C60.9256 18.0009 60.9816 17.9449 60.9816 17.8759V14.1756C60.9816 14.1066 61.0376 14.0506 61.1066 14.0506H62.6336C65.6821 14.0506 67.1296 12.2415 67.1296 10.2Z" fill="#003642"/>
<path d="M80.2044 12.1091C80.2044 8.59043 77.4801 6.11738 74.0564 6.11738C70.6504 6.11738 67.8914 8.59043 67.8914 12.1091C67.8914 15.6278 70.6504 18.1174 74.0564 18.1174C77.4624 18.1174 80.2044 15.6278 80.2044 12.1091ZM71.2976 12.1091C71.2976 10.2668 72.3194 9.10493 74.0564 9.10493C75.7771 9.10493 76.8154 10.2668 76.8154 12.1091C76.8154 13.9182 75.7771 15.0966 74.0564 15.0966C72.3194 15.0966 71.2976 13.9182 71.2976 12.1091Z" fill="#003642"/>
<path d="M81.6602 6.29958C81.5912 6.29958 81.5352 6.35553 81.5352 6.42458V17.8759C81.5352 17.9449 81.5912 18.0009 81.6602 18.0009H88.4779C88.5469 18.0009 88.6029 17.9449 88.6029 17.8759V15.6362C88.6029 15.5672 88.5469 15.5112 88.4779 15.5112H84.9977C84.9287 15.5112 84.8727 15.4553 84.8727 15.3862V6.42458C84.8727 6.35553 84.8167 6.29958 84.7477 6.29958H81.6602Z" fill="#003642"/>
<path d="M89.7305 17.8759C89.7305 17.9449 89.7865 18.0009 89.8555 18.0009H92.9437C93.013 18.0009 93.0687 17.9449 93.0687 17.8759V6.42458C93.0687 6.35553 93.013 6.29958 92.9437 6.29958H89.8555C89.7865 6.29958 89.7305 6.35553 89.7305 6.42458V17.8759Z" fill="#003642"/>
<path d="M94.1348 8.7638C94.1348 8.83283 94.1905 8.8888 94.2598 8.8888H97.1773C97.2463 8.8888 97.3023 8.94475 97.3023 9.0138V17.8759C97.3023 17.9449 97.3583 18.0009 97.4273 18.0009H100.516C100.585 18.0009 100.641 17.9449 100.641 17.8759V9.0138C100.641 8.94475 100.697 8.8888 100.766 8.8888H103.717C103.786 8.8888 103.842 8.83283 103.842 8.7638V6.42458C103.842 6.35553 103.786 6.29958 103.717 6.29958H94.2598C94.1905 6.29958 94.1348 6.35553 94.1348 6.42458V8.7638Z" fill="#003642"/>
<path d="M104.907 17.8764C104.907 17.9454 104.963 18.0014 105.032 18.0014H108.12C108.189 18.0014 108.245 17.9454 108.245 17.8764V6.4251C108.245 6.35608 108.189 6.3001 108.12 6.3001H105.032C104.963 6.3001 104.907 6.35608 104.907 6.4251V17.8764Z" fill="#003642"/>
<path d="M109.567 12.1259C109.567 15.628 111.934 18.0844 115.545 18.0844C118.501 18.0844 120.622 16.456 121.265 13.8882C121.285 13.8105 121.225 13.7359 121.145 13.7359H117.786C117.738 13.7359 117.694 13.7634 117.672 13.806C117.239 14.6411 116.455 15.0968 115.493 15.0968C113.961 15.0968 112.956 13.935 112.956 12.1259C112.956 10.3333 113.961 9.1715 115.493 9.1715C116.455 9.1715 117.239 9.6273 117.672 10.4624C117.694 10.5049 117.738 10.5325 117.786 10.5325H121.145C121.225 10.5325 121.285 10.4579 121.265 10.3802C120.622 7.81233 118.501 6.18395 115.545 6.18395C111.934 6.18395 109.567 8.64043 109.567 12.1259Z" fill="#003642"/>
<path d="M131.721 14.4494C131.721 10.6983 125.947 11.2626 125.947 9.5199C125.947 8.95553 126.339 8.67338 126.833 8.69003C127.411 8.69003 127.854 8.9858 127.93 9.63315C127.938 9.69948 127.992 9.75225 128.059 9.75225H131.436C131.508 9.75225 131.565 9.69165 131.559 9.62033C131.379 7.37903 129.59 6.11738 126.884 6.11738C124.347 6.11738 122.388 7.34558 122.388 9.63608C122.337 13.7024 128.161 12.8228 128.178 14.6983C128.178 15.246 127.718 15.5447 127.123 15.5447C126.537 15.5447 126.029 15.2723 125.925 14.4818C125.917 14.4171 125.863 14.3663 125.798 14.3663H122.486C122.414 14.3663 122.357 14.4274 122.363 14.4988C122.565 16.9164 124.615 18.1174 127.242 18.1174C130.086 18.1174 131.721 16.5074 131.721 14.4494Z" fill="#003642"/>
</g>
<defs>
<clipPath id="clip0_3784_2290">
<rect width="131.75" height="24" fill="white" transform="translate(0.0012207 0.117378)"/>
</clipPath>
</defs>
</svg>
