<svg width="150" height="49" viewBox="0 0 150 49" fill="none" xmlns="http://www.w3.org/2000/svg">
<path d="M29.4066 27.4951L24.0404 48.0798H17.9706L14.6864 34.5326L11.285 48.0798H5.2151L-0.00439453 27.4951H5.36171L8.32333 42.4791L11.9887 27.4951H17.5014L21.0202 42.4791L24.0111 27.4951H29.4066Z" fill="#004554" fill-opacity="0.5"/>
<path d="M48.9872 27.4951L41.8617 41.2769V48.0798H36.8475V41.2769L29.722 27.4951H35.4107L39.3986 36.1161L43.3572 27.4951H48.9872Z" fill="#004554" fill-opacity="0.5"/>
<path d="M62.8833 37.5236C64.0758 37.7777 65.0337 38.3739 65.757 39.3123C66.4803 40.2311 66.8419 41.2867 66.8419 42.4791C66.8419 44.1994 66.2359 45.5678 65.0239 46.5844C63.8314 47.5813 62.16 48.0798 60.0097 48.0798H50.421V27.4951H59.6871C61.7788 27.4951 63.4111 27.974 64.584 28.9319C65.7765 29.8898 66.3727 31.1898 66.3727 32.8319C66.3727 34.0439 66.0502 35.0507 65.4051 35.8521C64.7795 36.6536 63.9389 37.2108 62.8833 37.5236ZM55.4353 35.8228H58.7194C59.5405 35.8228 60.166 35.6469 60.5961 35.295C61.0457 34.9236 61.2705 34.386 61.2705 33.6823C61.2705 32.9785 61.0457 32.4409 60.5961 32.0695C60.166 31.6981 59.5405 31.5124 58.7194 31.5124H55.4353V35.8228ZM59.13 44.0333C59.9706 44.0333 60.6157 43.8476 61.0653 43.4761C61.5344 43.0852 61.769 42.528 61.769 41.8047C61.769 41.0814 61.5247 40.5145 61.036 40.104C60.5668 39.6935 59.9119 39.4882 59.0713 39.4882H55.4353V44.0333H59.13Z" fill="#004554" fill-opacity="0.5"/>
<path d="M78.8989 48.2851C76.9636 48.2851 75.1847 47.8355 73.5621 46.9362C71.9592 46.037 70.6787 44.7859 69.7208 43.1829C68.7825 41.5604 68.3133 39.7423 68.3133 37.7288C68.3133 35.7153 68.7825 33.9071 69.7208 32.3041C70.6787 30.7011 71.9592 29.45 73.5621 28.5507C75.1847 27.6515 76.9636 27.2019 78.8989 27.2019C80.8342 27.2019 82.6034 27.6515 84.2064 28.5507C85.8289 29.45 87.0996 30.7011 88.0184 32.3041C88.9567 33.9071 89.4259 35.7153 89.4259 37.7288C89.4259 39.7423 88.9567 41.5604 88.0184 43.1829C87.08 44.7859 85.8094 46.037 84.2064 46.9362C82.6034 47.8355 80.8342 48.2851 78.8989 48.2851ZM78.8989 43.7107C80.541 43.7107 81.8508 43.1633 82.8282 42.0686C83.8252 40.9739 84.3237 39.5273 84.3237 37.7288C84.3237 35.9108 83.8252 34.4642 82.8282 33.389C81.8508 32.2943 80.541 31.7469 78.8989 31.7469C77.2373 31.7469 75.908 32.2845 74.911 33.3597C73.9336 34.4349 73.4448 35.8913 73.4448 37.7288C73.4448 39.5468 73.9336 41.0032 74.911 42.0979C75.908 43.1731 77.2373 43.7107 78.8989 43.7107Z" fill="#004554" fill-opacity="0.5"/>
<path d="M102.127 48.0798L97.8455 40.3092H96.6432V48.0798H91.629V27.4951H100.045C101.667 27.4951 103.045 27.7786 104.179 28.3455C105.333 28.9124 106.193 29.6943 106.76 30.6913C107.327 31.6687 107.61 32.7635 107.61 33.9755C107.61 35.3439 107.219 36.5657 106.437 37.6409C105.675 38.716 104.541 39.4784 103.036 39.928L107.786 48.0798H102.127ZM96.6432 36.7612H99.7515C100.67 36.7612 101.354 36.5364 101.804 36.0867C102.273 35.6371 102.508 35.0018 102.508 34.1807C102.508 33.3988 102.273 32.783 101.804 32.3334C101.354 31.8838 100.67 31.659 99.7515 31.659H96.6432V36.7612Z" fill="#004554" fill-opacity="0.5"/>
<path d="M109.321 37.7581C109.321 35.7251 109.761 33.9168 110.64 32.3334C111.52 30.7304 112.742 29.4891 114.306 28.6094C115.889 27.7101 117.678 27.2605 119.672 27.2605C122.115 27.2605 124.207 27.9056 125.947 29.1958C127.687 30.486 128.85 32.2454 129.436 34.474H123.924C123.513 33.6138 122.927 32.9589 122.164 32.5093C121.421 32.0597 120.571 31.8349 119.613 31.8349C118.069 31.8349 116.818 32.3725 115.86 33.4477C114.902 34.5228 114.423 35.9597 114.423 37.7581C114.423 39.5566 114.902 40.9934 115.86 42.0686C116.818 43.1438 118.069 43.6814 119.613 43.6814C120.571 43.6814 121.421 43.4566 122.164 43.007C122.927 42.5573 123.513 41.9025 123.924 41.0423H129.436C128.85 43.2709 127.687 45.0302 125.947 46.3205C124.207 47.5911 122.115 48.2265 119.672 48.2265C117.678 48.2265 115.889 47.7866 114.306 46.9069C112.742 46.0077 111.52 44.7663 110.64 43.1829C109.761 41.5995 109.321 39.7912 109.321 37.7581Z" fill="#004554" fill-opacity="0.5"/>
<path d="M149.573 27.4951L142.448 41.2769V48.0798H137.433V41.2769L130.308 27.4951H135.996L139.984 36.1161L143.943 27.4951H149.573Z" fill="#004554" fill-opacity="0.5"/>
<path d="M24.3892 0.578325V21.1631H19.3749V8.81808L14.7712 21.1631H10.7247L6.09163 8.78876V21.1631H1.0774V0.578325H7.00064L12.7773 14.8293L18.4952 0.578325H24.3892Z" fill="#004554"/>
<path d="M39.3723 17.3511V21.1631H27.7897V13.1872L25.8837 13.7443V9.52183L27.7897 8.9647V0.578325H32.8039V7.46922L35.2377 6.73615V10.9587L32.8039 11.6917V17.3511H39.3723Z" fill="#004554"/>
<path d="M50.7892 21.3683C48.8539 21.3683 47.075 20.9187 45.4525 20.0195C43.8495 19.1202 42.569 17.8691 41.6111 16.2661C40.6728 14.6436 40.2036 12.8256 40.2036 10.812C40.2036 8.79853 40.6728 6.99028 41.6111 5.38729C42.569 3.7843 43.8495 2.53319 45.4525 1.63395C47.075 0.734714 48.8539 0.285095 50.7892 0.285095C52.7246 0.285095 54.4937 0.734714 56.0967 1.63395C57.7192 2.53319 58.9899 3.7843 59.9087 5.38729C60.847 6.99028 61.3162 8.79853 61.3162 10.812C61.3162 12.8256 60.847 14.6436 59.9087 16.2661C58.9703 17.8691 57.6997 19.1202 56.0967 20.0195C54.4937 20.9187 52.7246 21.3683 50.7892 21.3683ZM50.7892 16.7939C52.4313 16.7939 53.7411 16.2466 54.7185 15.1518C55.7155 14.0571 56.214 12.6105 56.214 10.812C56.214 8.99402 55.7155 7.54742 54.7185 6.47224C53.7411 5.37752 52.4313 4.83016 50.7892 4.83016C49.1276 4.83016 47.7983 5.36774 46.8013 6.44292C45.8239 7.5181 45.3352 8.97447 45.3352 10.812C45.3352 12.6301 45.8239 14.0864 46.8013 15.1812C47.7983 16.2563 49.1276 16.7939 50.7892 16.7939Z" fill="#004554"/>
<path d="M71.2312 0.578325C73.4011 0.578325 75.2974 1.00839 76.9199 1.86853C78.5424 2.72868 79.7935 3.94069 80.6732 5.50458C81.5725 7.04893 82.0221 8.83763 82.0221 10.8707C82.0221 12.8842 81.5725 14.6729 80.6732 16.2368C79.7935 17.8007 78.5327 19.0127 76.8906 19.8728C75.268 20.733 73.3816 21.1631 71.2312 21.1631H63.5193V0.578325H71.2312ZM70.9087 16.8233C72.8049 16.8233 74.2808 16.3052 75.3365 15.2691C76.3921 14.2331 76.9199 12.7669 76.9199 10.8707C76.9199 8.97447 76.3921 7.49855 75.3365 6.44292C74.2808 5.38729 72.8049 4.85948 70.9087 4.85948H68.5335V16.8233H70.9087Z" fill="#004554"/>
<path d="M89.5746 17.0578H98.4301V21.1631H83.8859V17.3511L92.6828 4.68354H83.8859V0.578325H98.4301V4.39031L89.5746 17.0578Z" fill="#004554"/>
<path d="M106.133 0.578325V21.1631H101.119V0.578325H106.133Z" fill="#004554"/>
<path d="M116.964 9.10267H112.019L115.184 1.5286H118.434L116.964 9.10267Z" fill="#00B3DB"/>
<path d="M119.238 17.4963C119.879 16.9876 120.171 16.7521 120.114 16.7898C121.961 15.2637 123.411 14.0107 124.466 13.031C125.54 12.0513 126.445 11.0244 127.179 9.95051C127.914 8.87658 128.282 7.8309 128.282 6.81349C128.282 6.04101 128.103 5.4381 127.745 5.00476C127.387 4.57142 126.85 4.35474 126.134 4.35474C125.418 4.35474 124.853 4.62794 124.438 5.17433C124.042 5.70187 123.845 6.45551 123.845 7.43524H119.181C119.219 5.83376 119.558 4.49605 120.199 3.42212C120.858 2.34818 121.716 1.55686 122.771 1.04815C123.845 0.539448 125.032 0.285095 126.332 0.285095C128.574 0.285095 130.26 0.859745 131.39 2.00904C132.54 3.15834 133.114 4.6562 133.114 6.50262C133.114 8.5186 132.427 10.3933 131.051 12.1266C129.676 13.8412 127.924 15.518 125.795 17.1572H133.425V21.0855H119.238V17.4963Z" fill="#00B3DB"/>
<path d="M148.384 4.94824H139.566V8.84832C139.943 8.43382 140.471 8.09468 141.149 7.8309C141.827 7.56713 142.562 7.43524 143.353 7.43524C144.766 7.43524 145.934 7.75554 146.858 8.39613C147.8 9.03673 148.487 9.86573 148.921 10.8831C149.354 11.9006 149.571 13.0028 149.571 14.1897C149.571 16.3941 148.949 18.1463 147.705 19.4464C146.462 20.7275 144.71 21.3681 142.449 21.3681C140.942 21.3681 139.632 21.1138 138.52 20.6051C137.409 20.0775 136.552 19.3522 135.949 18.4289C135.346 17.5057 135.016 16.4412 134.96 15.2354H139.679C139.792 15.8195 140.065 16.3093 140.499 16.705C140.932 17.0818 141.526 17.2702 142.279 17.2702C143.165 17.2702 143.824 16.9876 144.258 16.4224C144.691 15.8572 144.908 15.1035 144.908 14.1615C144.908 13.2383 144.681 12.5317 144.229 12.0419C143.777 11.552 143.118 11.3071 142.251 11.3071C141.61 11.3071 141.083 11.4672 140.668 11.7875C140.254 12.089 139.981 12.494 139.849 13.0028H135.186V0.709018H148.384V4.94824Z" fill="#00B3DB"/>
</svg>
