<svg width="50" height="16" viewBox="0 0 50 16" fill="none" xmlns="http://www.w3.org/2000/svg">
<path d="M9.94378 9.0781L8.15508 15.9397H6.1318L5.03707 11.4239L3.90325 15.9397H1.87997L0.140137 9.0781H1.92884L2.91604 14.0728L4.13784 9.0781H5.97541L7.14833 14.0728L8.14531 9.0781H9.94378Z" fill="white" fill-opacity="0.5"/>
<path d="M16.4707 9.0781L14.0955 13.672V15.9397H12.4241V13.672L10.0489 9.0781H11.9452L13.2745 11.9518L14.594 9.0781H16.4707Z" fill="white" fill-opacity="0.5"/>
<path d="M21.1027 12.4209C21.5002 12.5056 21.8195 12.7044 22.0606 13.0172C22.3017 13.3234 22.4222 13.6753 22.4222 14.0728C22.4222 14.6462 22.2202 15.1023 21.8162 15.4412C21.4187 15.7735 20.8616 15.9397 20.1448 15.9397H16.9486V9.0781H20.0373C20.7345 9.0781 21.2786 9.23775 21.6696 9.55704C22.0671 9.87634 22.2658 10.3097 22.2658 10.857C22.2658 11.261 22.1583 11.5966 21.9433 11.8638C21.7348 12.1309 21.4546 12.3167 21.1027 12.4209ZM18.62 11.854H19.7148C19.9884 11.854 20.197 11.7954 20.3403 11.6781C20.4902 11.5543 20.5651 11.3751 20.5651 11.1405C20.5651 10.9059 20.4902 10.7267 20.3403 10.6029C20.197 10.4791 19.9884 10.4172 19.7148 10.4172H18.62V11.854ZM19.8516 14.5908C20.1318 14.5908 20.3468 14.5289 20.4967 14.4051C20.6531 14.2748 20.7313 14.0891 20.7313 13.848C20.7313 13.6069 20.6498 13.4179 20.4869 13.2811C20.3305 13.1442 20.1122 13.0758 19.832 13.0758H18.62V14.5908H19.8516Z" fill="white" fill-opacity="0.5"/>
<path d="M26.4412 16.0081C25.7961 16.0081 25.2032 15.8582 24.6623 15.5585C24.128 15.2587 23.7012 14.8417 23.3819 14.3074C23.0691 13.7665 22.9127 13.1605 22.9127 12.4893C22.9127 11.8182 23.0691 11.2154 23.3819 10.6811C23.7012 10.1468 24.128 9.72972 24.6623 9.42998C25.2032 9.13023 25.7961 8.98036 26.4412 8.98036C27.0863 8.98036 27.6761 9.13023 28.2104 9.42998C28.7512 9.72972 29.1748 10.1468 29.4811 10.6811C29.7938 11.2154 29.9502 11.8182 29.9502 12.4893C29.9502 13.1605 29.7938 13.7665 29.4811 14.3074C29.1683 14.8417 28.7447 15.2587 28.2104 15.5585C27.6761 15.8582 27.0863 16.0081 26.4412 16.0081ZM26.4412 14.4833C26.9886 14.4833 27.4252 14.3008 27.751 13.9359C28.0833 13.571 28.2495 13.0888 28.2495 12.4893C28.2495 11.8833 28.0833 11.4011 27.751 11.0427C27.4252 10.6778 26.9886 10.4954 26.4412 10.4954C25.8874 10.4954 25.4443 10.6746 25.1119 11.033C24.7861 11.3914 24.6232 11.8768 24.6232 12.4893C24.6232 13.0954 24.7861 13.5808 25.1119 13.9457C25.4443 14.3041 25.8874 14.4833 26.4412 14.4833Z" fill="white" fill-opacity="0.5"/>
<path d="M34.1838 15.9397L32.7568 13.3495H32.356V15.9397H30.6846V9.0781H33.4898C34.0307 9.0781 34.4901 9.17259 34.868 9.36156C35.2525 9.55053 35.5392 9.81118 35.7281 10.1435C35.9171 10.4693 36.0116 10.8342 36.0116 11.2382C36.0116 11.6944 35.8813 12.1016 35.6206 12.46C35.3665 12.8184 34.9886 13.0725 34.4868 13.2224L36.0703 15.9397H34.1838ZM32.356 12.1668H33.3921C33.6983 12.1668 33.9264 12.0919 34.0763 11.942C34.2327 11.7921 34.3109 11.5803 34.3109 11.3066C34.3109 11.046 34.2327 10.8407 34.0763 10.6909C33.9264 10.541 33.6983 10.4661 33.3921 10.4661H32.356V12.1668Z" fill="white" fill-opacity="0.5"/>
<path d="M36.5819 12.4991C36.5819 11.8214 36.7285 11.2187 37.0217 10.6909C37.3149 10.1565 37.7222 9.74276 38.2435 9.44953C38.7713 9.14978 39.3676 8.99991 40.0322 8.99991C40.8467 8.99991 41.544 9.21494 42.1239 9.64501C42.7039 10.0751 43.0916 10.6615 43.2871 11.4044H41.4495C41.3126 11.1177 41.1172 10.8994 40.863 10.7495C40.6154 10.5996 40.332 10.5247 40.0127 10.5247C39.4979 10.5247 39.0808 10.7039 38.7615 11.0623C38.4422 11.4207 38.2826 11.8996 38.2826 12.4991C38.2826 13.0986 38.4422 13.5775 38.7615 13.9359C39.0808 14.2943 39.4979 14.4735 40.0127 14.4735C40.332 14.4735 40.6154 14.3986 40.863 14.2487C41.1172 14.0988 41.3126 13.8806 41.4495 13.5938H43.2871C43.0916 14.3367 42.7039 14.9231 42.1239 15.3532C41.544 15.7768 40.8467 15.9886 40.0322 15.9886C39.3676 15.9886 38.7713 15.8419 38.2435 15.5487C37.7222 15.249 37.3149 14.8352 37.0217 14.3074C36.7285 13.7796 36.5819 13.1768 36.5819 12.4991Z" fill="white" fill-opacity="0.5"/>
<path d="M49.9993 9.0781L47.6241 13.672V15.9397H45.9527V13.672L43.5775 9.0781H45.4738L46.8031 11.9518L48.1226 9.0781H49.9993Z" fill="white" fill-opacity="0.5"/>
<path d="M8.27132 0.105842V6.96742H6.59991V2.85243L5.06534 6.96742H3.71649L2.17214 2.84265V6.96742H0.500735V0.105842H2.47515L4.40069 4.85616L6.30668 0.105842H8.27132Z" fill="white"/>
<path d="M13.2657 5.69676V6.96742H9.40484V4.3088L8.76951 4.49451V3.08701L9.40484 2.9013V0.105842H11.0762V2.40281L11.8875 2.15845V3.56595L11.0762 3.81031V5.69676H13.2657Z" fill="white"/>
<path d="M17.0713 7.03584C16.4262 7.03584 15.8333 6.88597 15.2924 6.58622C14.7581 6.28647 14.3313 5.86944 14.012 5.33511C13.6992 4.79426 13.5428 4.18825 13.5428 3.51708C13.5428 2.84591 13.6992 2.24316 14.012 1.70883C14.3313 1.1745 14.7581 0.757464 15.2924 0.457718C15.8333 0.157972 16.4262 0.0080986 17.0713 0.0080986C17.7165 0.0080986 18.3062 0.157972 18.8405 0.457718C19.3813 0.757464 19.8049 1.1745 20.1112 1.70883C20.4239 2.24316 20.5803 2.84591 20.5803 3.51708C20.5803 4.18825 20.4239 4.79426 20.1112 5.33511C19.7984 5.86944 19.3748 6.28647 18.8405 6.58622C18.3062 6.88597 17.7165 7.03584 17.0713 7.03584ZM17.0713 5.51104C17.6187 5.51104 18.0553 5.32859 18.3811 4.96368C18.7134 4.59877 18.8796 4.11657 18.8796 3.51708C18.8796 2.91107 18.7134 2.42887 18.3811 2.07048C18.0553 1.70557 17.6187 1.52312 17.0713 1.52312C16.5175 1.52312 16.0744 1.70231 15.742 2.06071C15.4162 2.4191 15.2533 2.90456 15.2533 3.51708C15.2533 4.12309 15.4162 4.60855 15.742 4.97346C16.0744 5.33185 16.5175 5.51104 17.0713 5.51104Z" fill="white"/>
<path d="M23.8853 0.105842C24.6086 0.105842 25.2407 0.249198 25.7816 0.535912C26.3224 0.822626 26.7394 1.22663 27.0327 1.74793C27.3324 2.26271 27.4823 2.85894 27.4823 3.53663C27.4823 4.2078 27.3324 4.80403 27.0327 5.32533C26.7394 5.84663 26.3192 6.25063 25.7718 6.53735C25.2309 6.82406 24.6021 6.96742 23.8853 6.96742H21.3147V0.105842H23.8853ZM23.7778 5.52082C24.4099 5.52082 24.9019 5.34814 25.2538 5.00278C25.6056 4.65742 25.7816 4.1687 25.7816 3.53663C25.7816 2.90456 25.6056 2.41258 25.2538 2.06071C24.9019 1.70883 24.4099 1.53289 23.7778 1.53289H22.9861V5.52082H23.7778Z" fill="white"/>
<path d="M29.9998 5.59901H32.9516V6.96742H28.1036V5.69676L31.0359 1.47425H28.1036V0.105842H32.9516V1.3765L29.9998 5.59901Z" fill="white"/>
<path d="M35.5194 0.105842V6.96742H33.848V0.105842H35.5194Z" fill="white"/>
<path d="M39.1297 2.94729H37.4811L38.5362 0.4226H39.6196L39.1297 2.94729Z" fill="#00B3DB"/>
<path d="M39.8876 5.74517C40.1011 5.57561 40.1985 5.4971 40.1796 5.50966C40.7951 5.00096 41.2787 4.58331 41.6304 4.25674C41.9884 3.93016 42.2898 3.58788 42.5348 3.2299C42.7797 2.87193 42.9022 2.52337 42.9022 2.18423C42.9022 1.92674 42.8425 1.72577 42.7232 1.58132C42.6038 1.43687 42.4249 1.36465 42.1862 1.36465C41.9475 1.36465 41.7591 1.45571 41.621 1.63784C41.4891 1.81369 41.4231 2.0649 41.4231 2.39148H39.8688C39.8813 1.85765 39.9944 1.41175 40.2079 1.05377C40.4277 0.695794 40.7135 0.432021 41.0652 0.262452C41.4231 0.092883 41.8188 0.0080986 42.2521 0.0080986C42.9995 0.0080986 43.5616 0.199648 43.9384 0.582748C44.3215 0.965848 44.5131 1.46513 44.5131 2.08061C44.5131 2.7526 44.2838 3.37749 43.8254 3.95528C43.3669 4.52679 42.7828 5.08574 42.0732 5.63213H44.6167V6.94158H39.8876V5.74517Z" fill="#00B3DB"/>
<path d="M49.6028 1.56248H46.6637V2.86251C46.7893 2.72434 46.9651 2.61129 47.1912 2.52337C47.4173 2.43544 47.6622 2.39148 47.926 2.39148C48.397 2.39148 48.7864 2.49825 49.0941 2.71178C49.4082 2.92531 49.6374 3.20164 49.7818 3.54078C49.9263 3.87992 49.9985 4.24732 49.9985 4.64298C49.9985 5.37778 49.7913 5.96185 49.3768 6.39519C48.9623 6.82225 48.3782 7.03578 47.6245 7.03578C47.1221 7.03578 46.6856 6.951 46.3151 6.78143C45.9446 6.60558 45.6588 6.36379 45.4578 6.05605C45.2569 5.74831 45.147 5.39348 45.1281 4.99154H46.7013C46.739 5.18623 46.8301 5.34951 46.9745 5.4814C47.119 5.60701 47.3168 5.66981 47.568 5.66981C47.8632 5.66981 48.083 5.57561 48.2275 5.3872C48.3719 5.19879 48.4441 4.94757 48.4441 4.63356C48.4441 4.32582 48.3688 4.09031 48.218 3.92702C48.0673 3.76373 47.8475 3.68209 47.5586 3.68209C47.3451 3.68209 47.1692 3.73547 47.0311 3.84224C46.8929 3.94272 46.8018 4.07775 46.7579 4.24732H45.2035V0.149406H49.6028V1.56248Z" fill="#00B3DB"/>
</svg>
