<?xml version="1.0" encoding="utf-8"?>
<!-- Generator: Adobe Illustrator 16.0.0, SVG Export Plug-In . SVG Version: 6.00 Build 0)  -->
<!DOCTYPE svg PUBLIC "-//W3C//DTD SVG 1.1//EN" "http://www.w3.org/Graphics/SVG/1.1/DTD/svg11.dtd">
<svg version="1.1" id="Layer_1" xmlns="http://www.w3.org/2000/svg" xmlns:xlink="http://www.w3.org/1999/xlink" x="0px" y="0px"
	 width="929px" height="142.956px" viewBox="-271.5 85.146 929 142.956" enable-background="new -271.5 85.146 929 142.956"
	 xml:space="preserve">
<g id="Layer_2">
	<g id="Layer_1-2">
		<path fill="#191716" d="M-177.74,89.71v106.466h-20.517l-47.906-60.99v60.99h-25.254V89.71h20.542l47.88,60.987V89.71H-177.74z"/>
		<path fill="#191716" d="M-169.617,157.374c0-23.562,16.738-40.888,37.722-40.888c8.471-0.31,16.661,3.064,22.455,9.251v-7.141
			h24.322v77.58h-24.322v-7.167c-5.8,6.119-13.926,9.491-22.357,9.277C-152.879,198.287-169.617,180.86-169.617,157.374z
			 M-108.949,157.226c0-11.559-8.049-19.167-18.554-19.167c-10.503,0-18.087,7.608-18.087,19.167
			c0,11.562,7.608,19.461,18.087,19.461C-117.022,176.687-108.949,168.932-108.949,157.226z"/>
		<path fill="#191716" d="M50.55,150.379v45.798H26.204v-40.325c0-10.185-3.19-16.861-12.271-16.861
			c-9.57,0-13.522,6.824-13.522,18.702v38.484h-24.347v-40.325c0-10.185-3.19-16.861-12.271-16.861
			c-9.595,0-13.546,6.824-13.546,18.702v38.484h-24.395v-77.58h24.321v7.608c5.342-6.288,13.199-9.883,21.449-9.817
			c10.481,0,17.94,3.78,22.506,10.333c6.686-6.883,15.958-10.632,25.548-10.333C38.083,116.486,50.55,128.339,50.55,150.379z"/>
		<path fill="#DD3326" d="M143.712,173.817v22.359H55.827v-16.886l51.71-67.148h-50.95V89.71h85.627v17.18l-51.267,66.927H143.712z"
			/>
		<path fill="#DD3326" d="M144.792,157.374c0-23.562,16.713-40.888,37.721-40.888c8.432-0.287,16.576,3.087,22.333,9.251v-7.141
			h24.397v77.58h-24.348v-7.167c-5.776,6.107-13.877,9.479-22.285,9.277C161.505,198.287,144.792,180.86,144.792,157.374z
			 M205.461,157.226c0-11.559-8.053-19.167-18.555-19.167c-10.505,0-18.087,7.608-18.087,19.167
			c0,11.562,7.607,19.461,18.087,19.461C197.384,176.687,205.461,168.932,205.461,157.226z"/>
		<path fill="#DD3326" d="M238.103,85.146h24.345v111.031h-24.345V85.146z"/>
		<path fill="#DD3326" d="M268.976,157.545c0-23.267,16.271-41.059,41.058-41.059c25.696,0,40.592,17.792,40.592,40.126
			c0.036,2.704-0.17,5.406-0.61,8.073h-57.332c1.52,7.363,6.846,13.378,19.316,13.378c8.218,0,12.929-3.192,15.509-7.904
			l21.913,6.38c-4.121,9.598-17.175,21.748-37.863,21.748C286.303,198.287,268.976,181.719,268.976,157.545z M326.918,150.182
			c-0.762-6.994-6.993-13.228-17.03-13.228c-8.216-0.461-15.526,5.169-17.182,13.228H326.918z"/>
		<path fill="#DD3326" d="M423.124,176.245v19.932h-70.462V180.86l36.813-42.434h-35.905v-19.83h68.278v15.216l-37.108,42.433
			H423.124z"/>
		<path fill="#DD3326" d="M514.788,118.597l-46.065,109.505h-24.789l13.843-33.77l1.056-0.146l-1.056,0.146l-34.825-75.735h26.604
			l20.195,47.293l19.022-47.293H514.788z"/>
		<path fill="#DD3326" d="M504.48,183.095c-0.055-7.946,6.34-14.427,14.284-14.481c7.943-0.054,14.426,6.342,14.478,14.281
			c0.055,7.944-6.341,14.428-14.281,14.481c-0.042,0-0.085,0-0.124,0c-7.806,0.124-14.233-6.104-14.354-13.911
			C504.48,183.34,504.48,183.216,504.48,183.095z"/>
		<path fill="#DD3326" d="M626.379,157.374c0,23.586-16.71,40.913-37.695,40.913c-8.431,0.217-16.558-3.154-22.358-9.277v39.092
			h-24.344V118.597h24.344v7.141c5.771-6.166,13.923-9.538,22.358-9.251C609.646,116.486,626.379,133.813,626.379,157.374z
			 M602.278,157.226c0-11.559-7.584-19.167-18.085-19.167c-10.504,0-18.554,7.608-18.554,19.167c0,11.562,8.05,19.461,18.554,19.461
			C594.694,176.687,602.278,168.932,602.278,157.226z"/>
		<path fill="#DD3326" d="M633.152,85.146H657.5v111.031h-24.348V85.146z"/>
	</g>
</g>
</svg>
