<svg width="78" height="60" viewBox="0 0 78 60" fill="none" xmlns="http://www.w3.org/2000/svg"><path d="M15.8644 45.8642C13.633 45.8671 11.4262 45.3983 9.38854 44.4887C7.35092 43.5791 5.52862 42.2491 4.04102 40.5858L10.375 37.25L15.8644 45.8642Z" fill="#192643"></path><path d="M8.94143 28.7656L9.12088 38.4776C7.34285 38.9552 5.63559 39.665 4.04317 40.589C1.44253 37.6874 0.00300113 33.9288 0 30.0324L8.94143 28.7656Z" fill="#1C3761"></path><path d="M7.70631 30.0097H8.23957e-06C-0.00397514 26.1119 1.43648 22.351 4.04318 19.4531L10.9894 20.2976L7.70631 30.0097Z" fill="#0E4580"></path><path d="M9.11876 21.5381C7.34386 21.0512 5.63777 20.3418 4.04102 19.4267C5.52862 17.7635 7.35092 16.4335 9.38854 15.5239C11.4262 14.6142 13.633 14.1455 15.8644 14.1485L9.11876 21.5381Z" fill="#004E83"></path><path d="M15.8672 45.8642C18.0986 45.8671 20.3054 45.3983 22.343 44.4887C24.3806 43.5791 26.2029 42.2491 27.6905 40.5858L21.3566 37.25L15.8672 45.8642Z" fill="#1062AB"></path><path d="M22.7805 28.7656L22.6011 38.4776C24.3817 38.9572 26.0923 39.667 27.6893 40.589C30.2861 37.6858 31.7218 33.9274 31.722 30.0324L22.7805 28.7656Z" fill="#247EBB"></path><path d="M24.0258 30.0097H31.7215C31.7294 26.1132 30.2926 22.352 27.6889 19.4531L20.7427 20.2976L24.0258 30.0097Z" fill="#2D92CD"></path><path d="M22.6022 21.5381C24.3797 21.0492 26.0891 20.3399 27.6905 19.4267C26.2029 17.7635 24.3806 16.4335 22.343 15.5239C20.3054 14.6142 18.0986 14.1455 15.8672 14.1485L22.6022 21.5381Z" fill="#2D92CD"></path><path d="M22.6038 38.4706L14.623 36.3594L15.8687 45.8603C18.3495 45.8603 21.0203 42.9044 22.6038 38.4706Z" fill="#004E83"></path><path d="M15.8687 37.5749C18.1438 37.5717 20.4089 37.8734 22.6038 38.4722C23.5526 35.7579 24.0345 32.9023 24.029 30.0269L14.623 28.7812L15.8687 37.5749Z" fill="#1062AB"></path><path d="M14.623 21.1953L15.8687 30.0101H24.029C24.0366 27.1346 23.5546 24.2787 22.6038 21.5648L14.623 21.1953Z" fill="#247EBB"></path><path d="M22.6038 21.5381C21.0203 17.0937 18.3812 14.1484 15.8687 14.1484L14.623 18.2972L15.8687 22.4459C18.1439 22.4405 20.4084 22.1352 22.6038 21.5381Z" fill="#2D92CD"></path><path d="M9.12207 38.4755C10.7162 42.9093 13.3447 45.8651 15.8677 45.8651V37.5782C13.5891 37.5742 11.3204 37.876 9.12207 38.4755Z" fill="#1C3761"></path><path d="M7.70764 30.0055C7.69887 32.8803 8.17719 35.7358 9.12221 38.4508C11.3205 37.8513 13.5894 37.5495 15.8679 37.5534V29.9844L7.70764 30.0055Z" fill="#004E83"></path><path d="M9.12207 21.5408C11.3214 22.1351 13.5895 22.4368 15.8677 22.4381V14.1406C13.387 14.1406 10.6844 17.0965 9.12207 21.5408Z" fill="#247EBB"></path><path d="M15.868 22.4364C13.5897 22.4351 11.3217 22.1334 9.12228 21.5391C8.17505 24.2535 7.69666 27.1094 7.70771 29.9843H15.868V22.4364Z" fill="#1062AB"></path><path d="M53.0369 19.9996C52.8923 18.9211 52.5025 17.8902 51.8986 16.9862C51.2617 16.3529 50.4108 15.9843 49.514 15.9546H40.1386V28.9312H48.2677C48.7198 28.9726 49.1773 28.9165 49.6073 28.7667C50.0374 28.6169 50.4309 28.3769 50.7603 28.0626C51.3386 27.2698 51.6772 26.3276 51.7357 25.3479H52.6032V34.035H51.7357C51.7687 33.5691 51.7083 33.1012 51.56 32.6584C51.4118 32.2158 51.1757 31.8072 50.8683 31.4562C50.5389 31.1392 50.1472 30.8937 49.7171 30.7349C49.2889 30.5762 48.8314 30.5074 48.3757 30.5331H40.2465V39.6548C40.2191 40.6245 40.3289 41.5932 40.5705 42.5325C40.759 43.1663 41.1268 43.7323 41.6283 44.1615C42.2962 44.4472 43.0154 44.586 43.742 44.5686V45.4917H32.4688V44.5686C32.9684 44.6399 33.4771 44.5856 33.9511 44.4101C34.4233 44.2347 34.846 43.9439 35.1791 43.5642C35.8306 42.3704 36.1124 41.0098 35.9916 39.6548V20.3525C36.1143 19.0125 35.8507 17.6655 35.234 16.4704C34.8991 16.0913 34.4782 15.7994 34.006 15.6197C33.5339 15.44 33.0251 15.3779 32.5236 15.4387V14.5156H53.7415V19.9452L53.0369 19.9996Z" fill="#192643"></path><path d="M77.283 19.9996C77.1359 18.9211 76.7392 17.8902 76.1247 16.9862C75.4767 16.3529 74.6108 15.9843 73.6983 15.9546H64.1584V28.9312H72.4302C72.8901 28.9726 73.3557 28.9165 73.7933 28.7667C74.2309 28.6169 74.6313 28.3769 74.9665 28.0626C75.5549 27.2698 75.8994 26.3276 75.959 25.3479H76.8417V34.035H75.959C75.9925 33.5691 75.9311 33.1012 75.7802 32.6584C75.6294 32.2158 75.3892 31.8072 75.0763 31.4562C74.7411 31.1392 74.3426 30.8937 73.905 30.7349C73.4693 30.5762 73.0037 30.5074 72.5401 30.5331H64.2683V39.6548C64.2403 40.6245 64.3521 41.5932 64.5979 42.5325C64.7897 43.1663 65.164 43.7323 65.6742 44.1615C66.3539 44.4472 67.0857 44.586 67.825 44.5686V45.4917H56.354V44.5686C56.8624 44.6399 57.3801 44.5856 57.8624 44.4101C58.3428 44.2347 58.773 43.9439 59.1119 43.5642C59.7748 42.3704 60.0616 41.0098 59.9387 39.6548V20.3525C60.0635 19.0125 59.7953 17.6655 59.1678 16.4704C58.827 16.0913 58.3987 15.7994 57.9182 15.6197C57.4378 15.44 56.9201 15.3779 56.4099 15.4387V14.5156H77.9999V19.9452L77.283 19.9996Z" fill="#192643"></path></svg>